# xmcd
#
# Track frame offsets: 
#        150
#        10045
#        29191
#        47515
#        65515
#        86455
#        104841
#        122429
#        150455
#        165677
#        181751
#
# Disc length: 2789 seconds
#
# Revision: 0
# Processed by: cddbd v1.5.2PL0 Copyright (c) Steve Scherf et al.
# Submitted via: ExactAudioCopy v1.0b3
#
DISCID=840ae30b
DTITLE=Jeff Lang - I Live In My Head A Lot These Days
DYEAR=2014
DGENRE=Blues
TTITLE0=Watch Me Go
TTITLE1=Petra Goes To The Movies
TTITLE2=People Will Break Your Heart
TTITLE3=This City's Not Your Hometown Anymore
TTITLE4=Pull Of The Drift
TTITLE5=I Want To Run But My Legs Won't Stand
TTITLE6=Waiting For The Headlights Through The Blinds
TTITLE7=Standing On The Shore
TTITLE8=My Darling Gril Don't Change
TTITLE9=Gunshot Nights
TTITLE10=The Promise Of New Year's Eve
EXTD=
EXTT0=
EXTT1=
EXTT2=
EXTT3=
EXTT4=
EXTT5=
EXTT6=
EXTT7=
EXTT8=
EXTT9=
EXTT10=
PLAYORDER=
